<?xml version="1.0" encoding="UTF-8" standalone="no"?><svg xmlns="http://www.w3.org/2000/svg" xmlns:xlink="http://www.w3.org/1999/xlink" contentStyleType="text/css" height="632px" preserveAspectRatio="none" style="width:454px;height:632px;background:#FFFFFF;" version="1.1" viewBox="0 0 454 632" width="454px" zoomAndPan="magnify"><defs/><g><!--MD5=[fc637ae74f32bd63afafb1841fc052bd]
cluster Php Login Management--><g id="cluster_Php Login Management"><polygon fill="none" points="16,154.5,26,144.5,362,144.5,362,605.5,352,615.5,16,615.5,16,154.5" style="stroke:#181818;stroke-width:1.0;"/><line style="stroke:#181818;stroke-width:1.0;" x1="352" x2="362" y1="154.5" y2="144.5"/><line style="stroke:#181818;stroke-width:1.0;" x1="16" x2="352" y1="154.5" y2="154.5"/><line style="stroke:#181818;stroke-width:1.0;" x1="352" x2="352" y1="154.5" y2="615.5"/><text fill="#000000" font-family="sans-serif" font-size="14" font-weight="bold" lengthAdjust="spacing" textLength="184" x="93" y="170.4951">Php Login Management</text></g><!--MD5=[76aeba0ab875879ea5d21554d0007a3a]
entity model--><g id="elem_model"><polygon fill="#F1F1F1" points="32,317.5,42,307.5,114,307.5,114,343.7969,104,353.7969,32,353.7969,32,317.5" style="stroke:#181818;stroke-width:0.5;"/><line style="stroke:#181818;stroke-width:0.5;" x1="104" x2="114" y1="317.5" y2="307.5"/><line style="stroke:#181818;stroke-width:0.5;" x1="32" x2="104" y1="317.5" y2="317.5"/><line style="stroke:#181818;stroke-width:0.5;" x1="104" x2="104" y1="317.5" y2="353.7969"/><text fill="#000000" font-family="sans-serif" font-size="14" lengthAdjust="spacing" textLength="42" x="47" y="340.4951">Model</text></g><!--MD5=[8890788e37b11dd3053f547e2b5ce265]
entity domain--><g id="elem_domain"><polygon fill="#F1F1F1" points="242.5,563.5,252.5,553.5,335.5,553.5,335.5,589.7969,325.5,599.7969,242.5,599.7969,242.5,563.5" style="stroke:#181818;stroke-width:0.5;"/><line style="stroke:#181818;stroke-width:0.5;" x1="325.5" x2="335.5" y1="563.5" y2="553.5"/><line style="stroke:#181818;stroke-width:0.5;" x1="242.5" x2="325.5" y1="563.5" y2="563.5"/><line style="stroke:#181818;stroke-width:0.5;" x1="325.5" x2="325.5" y1="563.5" y2="599.7969"/><text fill="#000000" font-family="sans-serif" font-size="14" lengthAdjust="spacing" textLength="53" x="257.5" y="586.4951">Domain</text></g><!--MD5=[c05fcadc036a699206cfdfa4a4fdb889]
entity controller--><g id="elem_controller"><polygon fill="#F1F1F1" points="131.5,194.5,141.5,184.5,238.5,184.5,238.5,220.7969,228.5,230.7969,131.5,230.7969,131.5,194.5" style="stroke:#181818;stroke-width:0.5;"/><line style="stroke:#181818;stroke-width:0.5;" x1="228.5" x2="238.5" y1="194.5" y2="184.5"/><line style="stroke:#181818;stroke-width:0.5;" x1="131.5" x2="228.5" y1="194.5" y2="194.5"/><line style="stroke:#181818;stroke-width:0.5;" x1="228.5" x2="228.5" y1="194.5" y2="230.7969"/><text fill="#000000" font-family="sans-serif" font-size="14" lengthAdjust="spacing" textLength="67" x="146.5" y="217.4951">Controller</text></g><!--MD5=[bf2f9096aec1c19dd7dbe35a7c751e39]
entity view--><g id="elem_view"><polygon fill="#F1F1F1" points="149,317.5,159,307.5,221,307.5,221,343.7969,211,353.7969,149,353.7969,149,317.5" style="stroke:#181818;stroke-width:0.5;"/><line style="stroke:#181818;stroke-width:0.5;" x1="211" x2="221" y1="317.5" y2="307.5"/><line style="stroke:#181818;stroke-width:0.5;" x1="149" x2="211" y1="317.5" y2="317.5"/><line style="stroke:#181818;stroke-width:0.5;" x1="211" x2="211" y1="317.5" y2="353.7969"/><text fill="#000000" font-family="sans-serif" font-size="14" lengthAdjust="spacing" textLength="32" x="164" y="340.4951">View</text></g><!--MD5=[38bfa9dc6018363cafe15f923a4b8db9]
entity service--><g id="elem_service"><polygon fill="#F1F1F1" points="256,317.5,266,307.5,346,307.5,346,343.7969,336,353.7969,256,353.7969,256,317.5" style="stroke:#181818;stroke-width:0.5;"/><line style="stroke:#181818;stroke-width:0.5;" x1="336" x2="346" y1="317.5" y2="307.5"/><line style="stroke:#181818;stroke-width:0.5;" x1="256" x2="336" y1="317.5" y2="317.5"/><line style="stroke:#181818;stroke-width:0.5;" x1="336" x2="336" y1="317.5" y2="353.7969"/><text fill="#000000" font-family="sans-serif" font-size="14" lengthAdjust="spacing" textLength="50" x="271" y="340.4951">Service</text></g><!--MD5=[24b005fcbd1feaad7f7dedc55a678d14]
entity repository--><g id="elem_repository"><polygon fill="#F1F1F1" points="232,440.5,242,430.5,346,430.5,346,466.7969,336,476.7969,232,476.7969,232,440.5" style="stroke:#181818;stroke-width:0.5;"/><line style="stroke:#181818;stroke-width:0.5;" x1="336" x2="346" y1="440.5" y2="430.5"/><line style="stroke:#181818;stroke-width:0.5;" x1="232" x2="336" y1="440.5" y2="440.5"/><line style="stroke:#181818;stroke-width:0.5;" x1="336" x2="336" y1="440.5" y2="476.7969"/><text fill="#000000" font-family="sans-serif" font-size="14" lengthAdjust="spacing" textLength="74" x="247" y="463.4951">Repository</text></g><!--MD5=[8fc3522a43f8c7199df5e09e5bb0188e]
entity user--><g id="elem_user"><ellipse cx="185" cy="14" fill="#F1F1F1" rx="8" ry="8" style="stroke:#181818;stroke-width:0.5;"/><path d="M185,22 L185,49 M172,30 L198,30 M185,49 L172,64 M185,49 L198,64 " fill="none" style="stroke:#181818;stroke-width:0.5;"/><text fill="#000000" font-family="sans-serif" font-size="14" lengthAdjust="spacing" textLength="32" x="169" y="78.4951">User</text></g><!--MD5=[f50ff5e4cd64f259303fc83dba1819fc]
entity database--><g id="elem_database"><path d="M378.5,564 C378.5,554 408,554 408,554 C408,554 437.5,554 437.5,564 L437.5,589.2969 C437.5,599.2969 408,599.2969 408,599.2969 C408,599.2969 378.5,599.2969 378.5,589.2969 L378.5,564 " fill="#F1F1F1" style="stroke:#181818;stroke-width:0.5;"/><path d="M378.5,564 C378.5,574 408,574 408,574 C408,574 437.5,574 437.5,564 " fill="none" style="stroke:#181818;stroke-width:0.5;"/><text fill="#000000" font-family="sans-serif" font-size="14" lengthAdjust="spacing" textLength="39" x="388.5" y="590.9951">Mysql</text></g><!--MD5=[7adbb595cba8ee6e5c2e30ed2de8c102]
link user to controller--><g id="link_user_controller"><path d="M168.95,80.34 C165.26,90.24 161.87,101.11 160,111.5 C155.78,134.86 163.54,160.91 171.5,179.81 " fill="none" id="user-to-controller" style="stroke:#181818;stroke-width:1.0;"/><polygon fill="#181818" points="173.52,184.46,173.5773,174.6113,171.5159,179.8792,166.248,177.8179,173.52,184.46" style="stroke:#181818;stroke-width:1.0;"/><text fill="#000000" font-family="sans-serif" font-size="13" lengthAdjust="spacing" textLength="8" x="161" y="124.5669">1</text></g><!--MD5=[f2b1fa6e61aff663bfd0521a797f7645]
link controller to user--><g id="link_controller_user"><path d="M185,184.45 C185,159.5 185,118.25 185,86.99 " fill="none" id="controller-to-user" style="stroke:#181818;stroke-width:1.0;"/><polygon fill="#181818" points="185,81.67,181,90.67,185,86.67,189,90.67,185,81.67" style="stroke:#181818;stroke-width:1.0;"/><text fill="#000000" font-family="sans-serif" font-size="13" lengthAdjust="spacing" textLength="8" x="186" y="124.5669">8</text></g><!--MD5=[ddb961bca840c7c0b57e5b8ac713b6ba]
link controller to model--><g id="link_controller_model"><path d="M164.46,230.69 C145.35,251.33 116.9,282.07 96.81,303.78 " fill="none" id="controller-to-model" style="stroke:#181818;stroke-width:1.0;"/><polygon fill="#181818" points="93.41,307.45,102.46,303.5645,96.8073,303.7815,96.5904,298.1288,93.41,307.45" style="stroke:#181818;stroke-width:1.0;"/><text fill="#000000" font-family="sans-serif" font-size="13" lengthAdjust="spacing" textLength="8" x="136" y="273.5669">2</text></g><!--MD5=[7e32a097be010eedbcd0f8c178ded199]
link controller to service--><g id="link_controller_service"><path d="M206.28,230.69 C226.06,251.33 255.53,282.07 276.34,303.78 " fill="none" id="controller-to-service" style="stroke:#181818;stroke-width:1.0;"/><polygon fill="#181818" points="279.86,307.45,276.5112,298.1879,276.3967,303.8436,270.741,303.7291,279.86,307.45" style="stroke:#181818;stroke-width:1.0;"/><text fill="#000000" font-family="sans-serif" font-size="13" lengthAdjust="spacing" textLength="8" x="250" y="273.5669">3</text></g><!--MD5=[108071491d6574585b4e8a44c7f12a19]
link service to repository--><g id="link_service_repository"><path d="M298.8,353.69 C296.79,373.91 293.83,403.81 291.69,425.42 " fill="none" id="service-to-repository" style="stroke:#181818;stroke-width:1.0;"/><polygon fill="#181818" points="291.19,430.45,296.0462,421.8816,291.6762,425.4737,288.0841,421.1037,291.19,430.45" style="stroke:#181818;stroke-width:1.0;"/><text fill="#000000" font-family="sans-serif" font-size="13" lengthAdjust="spacing" textLength="8" x="296" y="396.5669">4</text></g><!--MD5=[7081cdce0f044b6e930c56b8e9e9a197]
link repository to domain--><g id="link_repository_domain"><path d="M289,476.69 C289,496.91 289,526.81 289,548.42 " fill="none" id="repository-to-domain" style="stroke:#181818;stroke-width:1.0;"/><polygon fill="#181818" points="289,553.45,293,544.45,289,548.45,285,544.45,289,553.45" style="stroke:#181818;stroke-width:1.0;"/><text fill="#000000" font-family="sans-serif" font-size="13" lengthAdjust="spacing" textLength="8" x="290" y="519.5669">5</text></g><!--MD5=[b41a96888f9aed59705c67e0bfd9d6b0]
link repository to database--><g id="link_repository_database"><path d="M310.83,476.69 C331.25,497.46 361.74,528.46 383.1,550.18 " fill="none" id="repository-to-database" style="stroke:#181818;stroke-width:1.0;"/><polygon fill="#181818" points="386.71,553.85,383.2302,544.6364,383.196,550.2931,377.5392,550.2588,386.71,553.85" style="stroke:#181818;stroke-width:1.0;"/><text fill="#000000" font-family="sans-serif" font-size="13" lengthAdjust="spacing" textLength="8" x="356" y="519.5669">6</text></g><!--MD5=[80ff8b53e28f65de5e3bf20865251e4f]
link controller to view--><g id="link_controller_view"><path d="M185,230.69 C185,250.91 185,280.81 185,302.42 " fill="none" id="controller-to-view" style="stroke:#181818;stroke-width:1.0;"/><polygon fill="#181818" points="185,307.45,189,298.45,185,302.45,181,298.45,185,307.45" style="stroke:#181818;stroke-width:1.0;"/><text fill="#000000" font-family="sans-serif" font-size="13" lengthAdjust="spacing" textLength="8" x="186" y="273.5669">7</text></g><!--MD5=[ebaa290cd00a3d18697554ffdf7a4a94]
@startuml padhil

actor "User" as user

 node "Php Login Management" {
  node "Model" as model
  node "Domain" as domain
  node "Controller" as controller
  node "View" as view
  node "Service" as service 
  node "Repository" as repository
  
 }  

 database "Mysql" as database

 user - -> controller :1
 controller - -> model :2
 controller - -> service :3
 service - -> repository : 4
 repository - -> domain :5
 repository - -> database :6
 controller - -> view :7
 controller - -> user :8
@enduml

PlantUML version 1.2022.7(Mon Aug 22 21:01:30 SCT 2022)
(GPL source distribution)
Java Runtime: OpenJDK Runtime Environment
JVM: OpenJDK 64-Bit Server VM
Default Encoding: UTF-8
Language: en
Country: US
--></g></svg>